<?xml version="1.0" encoding="utf-8"?>
<!-- Generator: Adobe Illustrator 21.1.0, SVG Export Plug-In . SVG Version: 6.00 Build 0)  -->
<svg version="1.1" id="Laag_1" xmlns="http://www.w3.org/2000/svg" xmlns:xlink="http://www.w3.org/1999/xlink" x="0px" y="0px"
	 viewBox="0 0 271 224.4" style="enable-background:new 0 0 271 224.4;" xml:space="preserve">
<style type="text/css">
	.st0{fill:#FFFFFF;}
</style>
<path d="M258.9,211.7c-2.6,0.4-5.3,0.7-7.9,0.7c-5,0.1-9.9-0.6-14.7-2.1c-9.1-2.9-17.2-8.6-24.2-15.1
	c-13.8-12.8-23.3-28.9-33.9-44.2c-0.5-0.7-0.5-1.5,0.2-2.1C197.8,130,212.1,106.5,214,79c1.5-20.7-2.9-42.8-17.2-58.5
	C185.2,7.8,168.1,1,150.9,1.5c-21.4,0.7-35.1,16.8-40.9,36.2c-6.1,20.3-3.8,40.6-3.5,61.3c0,0.8-0.9,1.4-1.6,1.4
	c-13.7-0.8-30.3,1-38.8,13.4c-12.5,18.1,1,41.5,17.3,51.5c26.7,16.4,62.3,9.3,86.4-8.2c0.8-0.6,1.8-0.4,2.3,0.5
	c9.7,17.8,18.6,36.6,33.2,51.2c7.6,7.6,17,14,28.1,14.1c7.4,0.1,14.9-1.4,21.7-4.2c2-0.8,13.6-5.7,14.3-8.3
	C267.5,209.2,260.6,211.4,258.9,211.7z M166.2,150.7c-10.9,10.9-26.6,16.6-41.9,16.8c-20.3-0.2-42.4-8.5-49.1-29.4
	c-2.3-7.1-2.3-14.7,1.4-21.3c5.7-10.2,17.9-13.9,29-11.9c0.6,0.1,1.3,0.5,1.3,1.2c0.6,8.9,1.9,17.7,3.3,26.5
	c0.5,3.2,0.9,6.6,1.7,9.8c0.9,3.7,3.6,6.8,5.9,9.7c0.1,0.2,1,1.2,1.3,1.9c0-0.6,0-1.5,0-1.7c0.1-1.3,0.2-2.6,0.3-4
	c0.3-4.2,0.9-8.5,1.4-12.7c1.1-8.2,2.3-16.5,4.6-24.5c0.3-1,1.5-1.1,2.3-0.7c15.9,8.5,30.4,22.4,39,38.4
	C167,149.6,166.7,150.3,166.2,150.7z M172.1,142.3c-1.8-2.6-3.6-5.1-5.5-7.7c-10-13.2-23.2-23.5-38.7-29.4c-0.8-0.3-1.1-1.1-0.9-1.9
	c2.7-10.7,5.8-21.4,8.4-32.2c0.5-2.3,1.6-3.6-0.5-4.6c-1.9-0.9-1.8,0.1-2.7,1.8c-0.6,1.1-1.1,2.2-1.6,3.4c-1.3,2.9-2.5,5.8-3.7,8.8
	c-3.3,8.1-6.5,16.2-9.4,24.4c-0.5,1.3-2.8,1.3-2.9-0.3c-1.2-21.4-5.2-43.1,1.5-64.1c5-15.6,17.3-28.5,34.5-28.3
	c17.3,0.1,30.2,14.1,37.2,28.6c15.2,31.4,11.6,76.2-13.6,101.7C173.7,143.1,172.6,143,172.1,142.3z"/>
<g>
	<path d="M86.9,58.8c0,20.6-11.5,33.5-24.9,33.5c-14.9,0-24.6-13-24.6-33.5c0-20.5,10-33.5,24.8-33.5C77,25.2,86.9,38.2,86.9,58.8z
		 M75,58.7c0-16.9-4.5-25.3-12.9-25.3c-8.5,0-12.9,8.5-12.9,25.3c0,16.8,4.5,25.3,13,25.3C70.6,84,75,75.6,75,58.7z"/>
	<g>
		<path class="st0" d="M85.4,58.6c-0.2,14.3-7.3,32.8-24.5,32.1C44,90,38.5,71.4,38.9,57.3C39.3,43,46.3,26,63.1,26.7
			C79.6,27.5,85.2,44.7,85.4,58.6c0,1.9,3,2.2,3,0.3C88.2,46.5,84.7,32,72.6,26.1c-10.7-5.2-23.6-1.4-30.2,8.3
			C29.5,53.1,35,98.3,65.4,93.5c16.2-2.6,22.7-20.1,22.9-34.6C88.4,57,85.4,56.7,85.4,58.6z"/>
		<path class="st0" d="M76.5,58.9c-0.1-8.3-0.4-21.2-9-25.7c-6.4-3.3-13.4,0-16.5,6.1c-5.5,10.9-7.5,50.7,13.9,46
			C75.8,82.8,76.4,67.5,76.5,58.9c0-1.9-3-2.2-3-0.3c-0.1,7.6-0.3,23.8-11.2,24c-11,0.1-11.6-16-11.6-23.7c0-7.6,0.5-23.8,11.3-24
			c11.1-0.1,11.5,16,11.6,23.7C73.5,60.5,76.5,60.8,76.5,58.9z"/>
	</g>
</g>
<g>
	<path d="M36.9,88.3c-0.6-0.2-1.6-0.4-2-0.5c-7.2-1.7-9.5-2.3-9.5-16v-15V29.2c0-2.9-1-3.8-2.3-3.8c-1,0-1.7,0.9-2.3,1.6
		c-3.2,4-7.1,6.6-14.3,8c-0.5,0.1-1.3,0.3-2.3,0.4c-1.2,0.2-2.7,0.7-2.6,1.9C1.6,38.8,3.5,39,5,39h1.1c8.8,0,9.2,3.6,9.2,17.1v15.6
		c0,13.7-2.4,14.3-9.6,16c-0.4,0.1-1.4,0.4-2,0.5c-0.9,0.3-1.4,0.7-1.4,1.5c0,0.5,0.2,0.8,0.7,1.1c0.3,0.2,0.9,0.3,1.8,0.3h30.9
		c0.9,0,1.5-0.1,1.8-0.3c0.5-0.3,0.7-0.7,0.7-1.1C38.2,88.9,37.8,88.5,36.9,88.3z"/>
	<g>
		<path class="st0" d="M37.4,86.8c-3.8-1-8.3-1.2-9.7-5.5c-1.3-3.9-0.8-8.3-0.8-12.4c0-5.6,0-11.2,0-16.7c0-7.4,0.2-14.8,0-22.2
			c-0.1-2.3-0.2-5.4-2.9-6c-1.5-0.4-2.6,0.3-3.7,1.2c-2.5,2.1-4,4.4-7,6c-3,1.5-6.2,1.9-9.4,2.8c-1.6,0.5-3.6,1-3.8,3.1
			c-0.4,3.7,4.5,3.3,6.9,3.5c5.4,0.3,6.4,3.4,6.7,8.3c0.3,4.2,0.1,8.4,0.1,12.6c0,6,2.3,20-3.6,23.4c-2.6,1.5-7.9,0.8-9.1,3.9
			c-1,2.7,1.6,3.7,3.8,3.9c7.9,0.7,16.2,0,24.1,0c2.3,0,4.7,0.2,7,0C39.8,92.3,41.1,88.8,37.4,86.8c-1.7-0.9-2.7,1.9-1,2.8
			c-1.2-0.6-4.3,0-5.5,0c-4,0-7.9,0-11.9,0c-3.5,0-6.9,0-10.4,0c-1.3,0-5.4,0.6-2.2-0.6c2.4-0.8,5-1,7-2.8c2.4-2.2,3-5.6,3.3-8.6
			c0.7-6.8,0.2-13.9,0.2-20.7c0-5.2,1.3-14.3-3.8-17.9c-2.5-1.8-5.2-1-8-1.6c-2.1-0.4-0.6-0.4,0.6-0.8c1.3-0.5,2.7-0.6,4.1-0.9
			c2.4-0.7,4.7-1.6,6.8-2.9c1.7-1.1,2.8-2.6,4.4-3.8c1.8-1.4,2.3-2,2.9,0.4c0.7,2.4,0,6,0,8.5c0,6.2,0,12.4,0,18.6
			c0,6.2-0.2,12.4,0.1,18.6c0.2,3.7,0.3,8.2,3.1,11c2.4,2.3,6.2,2.7,9.3,3.5C38.2,90.2,39.3,87.3,37.4,86.8z"/>
	</g>
</g>
</svg>
